# xmcd CD database file
#
# Track frame offsets:
#	150
#	16442
#	44002
#	57462
#	73870
#	118472
#	128625
#	134192
#	139542
#	145780
#	151007
#	184080
#	217875
#	227347
#	247532
#
# Disc length: 3606 seconds
#
# Revision: 0
# Processed by: cddbd v1.5PL3 Copyright (c) Steve Scherf et al.
# Submitted via: CDex 1.51
#
DISCID=d80e140f
DTITLE=Individual Orchestra - Music From A View (Revirth)
DYEAR=2003
DGENRE=Instrumental
TTITLE0=Untitle -2:58-
TTITLE1=Gran Via
TTITLE2=Light
TTITLE3=Grain. Drop.
TTITLE4=Sunshining. Some Building. Blue Sky *
TTITLE5=Black And White
TTITLE6=MC 1
TTITLE7=Ycj 1
TTITLE8=Untitle -7:02-
TTITLE9=MC 2
TTITLE10=Standing. Beer
TTITLE11=Music Is Very Beautiful In The Afternoon
TTITLE12=Ycj 2
TTITLE13=Untitle -18:16-
TTITLE14=4. April
EXTD=YEAR: 2003
EXTT0=
EXTT1=
EXTT2=
EXTT3=
EXTT4=
EXTT5=
EXTT6=
EXTT7=
EXTT8=
EXTT9=
EXTT10=
EXTT11=
EXTT12=
EXTT13=
EXTT14=
PLAYORDER=
